#!OML:ASF F:\VICON\USERDATA\INSTALL\Justin_Nancy\Justin_Nancy.ASF
:FULLY-SPECIFIED
:DEGREES
68
root 0.0791016 16.6512 -14.0834 19.7939 -7.87839 1.32368
lowerback 17.8086 -1.25804 -2.67571
upperback 2.85166 -1.95637 2.68954
thorax -6.71605 -0.863503 4.86756
lowerneck -23.244 -0.985169 -9.4462
upperneck -0.878594 0.819289 6.20939
head 3.25314 0.745962 3.53659
rclavicle -2.18663e-014 8.74653e-015
rhumerus -50.665 -0.859947 -84.2532
rradius 87.2389
rwrist -17.0818
rhand -26.0318 31.6489
rfingers 7.12502
rthumb 0.515036 1.66979
lclavicle -2.18663e-014 8.74653e-015
lhumerus -39.4058 -23.5377 92.1625
lradius 102.755
lwrist 21.7012
lhand -24.955 4.65159
lfingers 7.12502
lthumb 1.55504 34.6257
rfemur -47.2076 3.85719 17.9201
rtibia 66.0987
rfoot -14.385 -4.03906
rtoes -24.0454
lfemur -18.428 -4.7813 -22.7908
ltibia 73.5737
lfoot 17.9715 -17.0187
ltoes -3.12478
69
root 0.0443692 16.5958 -13.7153 19.4585 -7.18584 0.804504
lowerback 18.1436 -1.25247 -1.9372
upperback 2.9888 -1.79037 2.98184
thorax -6.78043 -0.797318 4.73358
lowerneck -23.2424 -1.13746 -9.71438
upperneck -0.801958 0.692365 6.18416
head 3.28466 0.680798 3.56033
rclavicle 4.81059e-014 -3.69739e-014
rhumerus -47.8207 -0.623689 -85.0806
rradius 86.2582
rwrist -17.5232
rhand -26.3112 30.865
rfingers 7.12502
rthumb 0.245225 0.885358
lclavicle 4.81059e-014 -3.69739e-014
lhumerus -40.4572 -23.0427 92.8779
lradius 99.6211
lwrist 21.6083
lhand -22.2331 7.73077
lfingers 7.12502
lthumb 4.18369 37.6694
rfemur -44.8231 3.97633 18.6799
rtibia 65.7855
rfoot -15.5774 -4.91307
rtoes -26.5904
lfemur -21.1311 -4.07308 -21.3557
ltibia 77.9177
lfoot 16.4377 -16.6274
ltoes -4.06082
70
root 0.0132513 16.5331 -13.3564 19.0243 -6.25935 0.170844
lowerback 18.7461 -1.33457 -0.915934
upperback 3.16261 -1.67654 3.2778
thorax -6.95026 -0.760557 4.46317
lowerneck -23.4793 -1.35956 -9.65115
upperneck -0.666674 0.421862 5.87954
head 3.37866 0.529874 3.43064
rclavicle -2.18663e-014 4.77083e-014
rhumerus -44.992 -0.118616 -85.97
rradius 85.5635
rwrist -17.8024
rhand -26.1952 30.2948
rfingers 7.12502
rthumb 0.357234 0.315401
lclavicle -2.18663e-014 4.77083e-014
lhumerus -41.3184 -22.4624 93.3316
lradius 96.247
lwrist 21.7097
lhand -18.7837 11.2965
lfingers 7.12502
lthumb 7.51397 41.143
rfemur -42.2414 3.80017 19.7262
rtibia 65.3597
rfoot -16.9004 -5.57948
rtoes -25.6449
lfemur -23.8279 -3.3141 -19.6699
ltibia 82.1001
lfoot 14.3627 -15.8575
ltoes -5.9234
71
root -0.0151611 16.467 -12.9957 18.734 -5.66955 -0.673662
lowerback 19.1701 -1.26752 0.0795317
upperback 3.32435 -1.36067 3.62284
thorax -7.04483 -0.627378 4.20367
lowerneck -23.3889 -1.59708 -9.64021
upperneck -0.878711 0.119627 5.58229
head 3.32012 0.363976 3.30416
rclavicle -7.15625e-015 5.96354e-014
rhumerus -42.275 0.818451 -86.7557
rradius 85.4424
rwrist -18.226
rhand -25.1801 29.5633
rfingers 7.12502
rthumb 1.33765 -0.412295
lclavicle -7.15625e-015 5.96354e-014
lhumerus -42.0047 -21.8733 93.6386
lradius 92.6968
lwrist 22.6809
lhand -16.4298 14.6651
lfingers 7.12502
lthumb 9.7855 44.4178
rfemur -39.7403 3.75625 20.9858
rtibia 64.7616
rfoot -18.138 -6.5079
rtoes -26.318
lfemur -26.7697 -2.02165 -17.8658
ltibia 86.0821
lfoot 12.1177 -15.0675
ltoes -7.86695
72
root -0.0421293 16.4101 -12.6182 18.6013 -5.62773 -1.552
lowerback 19.3176 -0.974891 0.911574
upperback 3.49716 -0.791611 3.91174
thorax -6.98431 -0.371653 3.90078
lowerneck -23.3051 -1.81294 -9.73882
upperneck -1.11598 -0.130827 5.40497
head 3.25078 0.232038 3.23875
rclavicle 2.70347e-014 -2.82274e-014
rhumerus -39.4562 1.87304 -87.5063
rradius 85.6702
rwrist -18.2727
rhand -24.3833 28.2359
rfingers 7.12502
rthumb 2.1072 -1.73345
lclavicle 2.70347e-014 -2.82274e-014
lhumerus -42.4673 -21.1833 93.8143
lradius 89.0767
lwrist 24.2561
lhand -17.5511 15.761
lfingers 7.12502
lthumb 8.70356 45.5616
rfemur -37.3341 4.08155 22.1077
rtibia 63.9097
rfoot -19.1715 -7.51259
rtoes -28.6709
lfemur -29.8227 -0.198472 -16.2943
ltibia 89.6269
lfoot 9.91899 -14.3112
ltoes -9.24647
73
root -0.0752129 16.3492 -12.2534 18.556 -5.6629 -2.08564
lowerback 19.5274 -0.601984 1.26067
upperback 3.57958 -0.212281 4.15271
thorax -7.04257 -0.0983369 3.82264
lowerneck -23.1201 -1.98319 -9.77536
upperneck -1.4724 -0.343572 5.16583
head 3.12679 0.116527 3.14698
rclavicle 1.23246e-014 1.03368e-014
rhumerus -36.6601 3.05314 -88.1074
rradius 86.0352
rwrist -17.919
rhand -23.886 28.2522
rfingers 7.12502
rthumb 2.58748 -1.71183
lclavicle 1.23246e-014 1.03368e-014
lhumerus -42.9759 -20.1971 93.8944
lradius 85.5854
lwrist 25.9749
lhand -21.95 14.54
lfingers 7.12502
lthumb 4.45709 44.4731
rfemur -35.1002 4.40225 22.8669
rtibia 63.0151
rfoot -20.1658 -8.60953
rtoes -30.3283
lfemur -33.0923 1.70853 -15.1726
ltibia 92.7965
lfoot 8.26233 -13.8017
ltoes -9.99415
74
root -0.11204 16.3105 -11.8864 18.5482 -5.7515 -2.40134
lowerback 19.8506 -0.200276 1.27842
upperback 3.56877 0.347527 4.39787
thorax -7.26106 0.17456 3.94594
lowerneck -23.0487 -2.11467 -9.64434
upperneck -1.67975 -0.525282 4.62271
head 3.05892 -0.00164875 2.93571
rclavicle 1.19271e-015 1.74931e-014
rhumerus -34.1583 4.66181 -88.673
rradius 87.6692
rwrist -17.3725
rhand -23.7774 27.2423
rfingers 7.12502
rthumb 2.69237 -2.7205
lclavicle 1.19271e-015 1.74931e-014
lhumerus -43.783 -19.1014 93.986
lradius 82.4366
lwrist 26.5588
lhand -22.089 15.6222
lfingers 7.12502
lthumb 4.32283 45.5581
rfemur -32.7416 4.64421 23.3632
rtibia 61.927
rfoot -21.1193 -9.55645
rtoes -30.9357
lfemur -36.4162 3.60472 -14.4497
ltibia 95.3934
lfoot 7.38768 -13.4267
ltoes -9.28413
75
root -0.141809 16.2516 -11.5189 18.6533 -5.98759 -2.47614
lowerback 19.8895 0.181963 1.16603
upperback 3.59312 0.827531 4.46009
thorax -7.28658 0.408474 3.95495
lowerneck -23.2289 -2.26364 -9.57224
upperneck -1.59394 -0.707381 4.36341
head 3.1196 -0.106116 2.82537
rclavicle 8.74653e-015 6.36111e-015
rhumerus -31.6109 6.43037 -89.304
rradius 89.5483
rwrist -16.3406
rhand -22.8371 27.9325
rfingers 7.12502
rthumb 3.6004 -2.0168
lclavicle 8.74653e-015 6.36111e-015
lhumerus -44.7193 -18.1657 93.8335
lradius 79.7184
lwrist 25.0372
lhand -22.575 16.2652
lfingers 7.12502
lthumb 3.85353 46.2101
rfemur -30.6674 4.88613 23.4621
rtibia 60.8362
rfoot -21.9141 -10.1037
rtoes -31.4887
lfemur -39.9489 5.4421 -14.2243
ltibia 97.7027
lfoot 6.58489 -12.8846
ltoes -9.93493
76
root -0.168887 16.1991 -11.1378 18.7916 -6.22455 -2.29231
lowerback 19.8519 0.496051 0.914019
upperback 3.51732 1.1796 4.3652
thorax -7.37342 0.584106 3.90541
lowerneck -23.2871 -2.34045 -9.47832
upperneck -1.43161 -0.824601 4.32103
head 3.18565 -0.168385 2.78641
rclavicle -1.19271e-014 -3.33958e-014
rhumerus -29.356 8.48977 -89.9767
rradius 91.9137
rwrist -15.673
rhand -22.0159 28.7315
rfingers 7.12502
rthumb 4.39337 -1.20292
lclavicle -1.19271e-014 -3.33958e-014
lhumerus -46.2242 -17.1544 93.4038
lradius 78.1301
lwrist 22.0478
lhand -23.2889 15.8547
lfingers 7.12502
lthumb 3.16414 45.8109
rfemur -28.6227 5.05128 23.224
rtibia 59.5871
rfoot -22.4906 -10.3825
rtoes -31.8701
lfemur -43.4831 6.98653 -14.4357
ltibia 99.5572
lfoot 5.55052 -12.1166
ltoes -10.0943
77
root -0.187941 16.1578 -10.7437 18.8587 -6.41265 -2.41671
lowerback 20.0396 0.770571 1.06316
upperback 3.34438 1.57776 4.29716
thorax -7.68195 0.773467 3.64425
lowerneck -23.0638 -2.39156 -9.46575
upperneck -1.34854 -0.923057 4.44593
head 3.18933 -0.212696 2.8152
rclavicle 8.74653e-015 -3.97569e-015
rhumerus -27.2822 10.6598 -90.5186
rradius 94.7549
rwrist -16.1142
rhand -21.16 29.0634
rfingers 7.12502
rthumb 5.21983 -0.852298
lclavicle 8.74653e-015 -3.97569e-015
lhumerus -48.6024 -16.0413 92.9252
lradius 78.232
lwrist 19.24
lhand -22.378 14.9813
lfingers 7.12502
lthumb 4.04378 44.9226
rfemur -26.2783 5.21901 23.2977
rtibia 58.1258
rfoot -22.9739 -10.5294
rtoes -32.3579
lfemur -46.9196 8.47112 -14.458
ltibia 100.955
lfoot 4.23375 -11.482
ltoes -8.13383
78
root -0.20522 16.129 -10.3411 18.969 -6.72173 -2.50606
lowerback 20.1205 0.999893 1.1863
upperback 3.20642 1.89347 4.08375
thorax -7.88275 0.919785 3.25734
lowerneck -22.8404 -2.41189 -9.39683
upperneck -1.33032 -1.00648 4.75898
head 3.17434 -0.237976 2.89662
rclavicle 5.1684e-015 2.78299e-014
rhumerus -24.9701 12.9829 -91.2401
rradius 97.5623
rwrist -16.4928
rhand -20.7355 29.2526
rfingers 7.12502
rthumb 5.62972 -0.652656
lclavicle 5.1684e-015 2.78299e-014
lhumerus -51.371 -14.9602 92.2405
lradius 79.4602
lwrist 17.4447
lhand -20.7144 13.431
lfingers 7.12502
lthumb 5.65006 43.3356
rfemur -23.8395 5.39647 23.2567
rtibia 56.431
rfoot -23.3429 -10.3899
rtoes -32.3591
lfemur -50.4334 9.86051 -14.7503
ltibia 101.905
lfoot 2.73948 -11.2549
ltoes -10.9052
79
root -0.224902 16.1056 -9.93395 19.1463 -6.80667 -2.57264
lowerback 20.1056 1.10949 1.43381
upperback 3.02645 2.06855 3.75797
thorax -8.05856 0.992904 2.7137
lowerneck -22.5776 -2.46098 -9.22373
upperneck -1.41396 -1.16791 5.26095
head 3.13059 -0.291038 3.01467
rclavicle 3.97569e-016 1.03368e-014
rhumerus -22.6905 15.2052 -92.0346
rradius 100.368
rwrist -16.2748
rhand -20.4598 29.0484
rfingers 7.12502
rthumb 5.89595 -0.84957
lclavicle 3.97569e-016 1.03368e-014
lhumerus -54.3393 -14.3379 91.5094
lradius 81.3218
lwrist 17.2097
lhand -19.6885 11.892
lfingers 7.12502
lthumb 6.6405 41.7679
rfemur -21.4865 5.44709 23.2732
rtibia 54.5314
rfoot -23.1466 -10.304
rtoes -33.0924
lfemur -54.0508 10.8211 -15.0709
ltibia 102.425
lfoot 0.691981 -10.9168
ltoes -18.0146
80
root -0.238163 16.0965 -9.50178 19.3988 -6.72077 -2.85348
lowerback 19.9793 1.15954 2.06446
upperback 2.76779 2.25014 3.4666
thorax -8.24354 1.05653 1.98907
lowerneck -22.3461 -2.57115 -9.19808
upperneck -1.33175 -1.37081 5.77786
head 3.14729 -0.36626 3.15697
rclavicle 1.82882e-014 8.74653e-015
rhumerus -20.853 17.0879 -92.6137
rradius 103.427
rwrist -16.2817
rhand -19.5194 28.8717
rfingers 7.12502
rthumb 6.8038 -0.999022
lclavicle 1.82882e-014 8.74653e-015
lhumerus -57.5651 -14.019 90.873
lradius 83.7786
lwrist 18.7273
lhand -18.9632 11.2789
lfingers 7.12502
lthumb 7.34072 41.1316
rfemur -19.0375 5.30224 23.5422
rtibia 52.3703
rfoot -22.5267 -10.2898
rtoes -34.8429
lfemur -57.6079 11.3602 -15.1251
ltibia 102.221
lfoot -0.905179 -10.4597
ltoes -20.7408
81
root -0.247758 16.0744 -9.06144 19.6939 -6.82524 -3.05469
lowerback 19.818 1.35439 2.47532
upperback 2.44049 2.5786 3.20717
thorax -8.4912 1.1943 1.38712
lowerneck -22.0905 -2.82556 -9.25391
upperneck -1.11614 -1.73719 6.07283
head 3.21136 -0.537253 3.22636
rclavicle -1.19271e-014 -1.59028e-014
rhumerus -19.4379 18.6787 -92.7868
rradius 106.348
rwrist -16.2491
rhand -18.3953 29.5363
rfingers 7.12502
rthumb 7.8888 -0.296556
lclavicle -1.19271e-014 -1.59028e-014
lhumerus -60.7593 -13.899 90.4184
lradius 86.5421
lwrist 21.4781
lhand -18.1127 12.6368
lfingers 7.12502
lthumb 8.16154 42.4592
rfemur -16.5574 5.28667 23.5843
rtibia 50.1276
rfoot -21.7285 -9.78992
rtoes -35.9484
lfemur -60.6754 11.9831 -15.4001
ltibia 101.828
lfoot -0.717965 -10.5494
ltoes -14.9773
82
root -0.254321 16.0767 -8.60107 20.1398 -6.65577 -3.16918
lowerback 19.376 1.55477 2.96089
upperback 2.1241 2.91763 2.96031
thorax -8.56222 1.33473 0.761511
lowerneck -21.9899 -3.20646 -9.18966
upperneck -0.75888 -2.27777 6.1274
head 3.34914 -0.806898 3.18305
rclavicle -8.34896e-015 -1.03368e-014
rhumerus -18.3103 19.9794 -92.7332
rradius 109.366
rwrist -16.3649
rhand -17.4868 30.2809
rfingers 7.12502
rthumb 8.76561 0.482926
lclavicle -8.34896e-015 -1.03368e-014
lhumerus -63.5714 -14.1965 90.2108
lradius 89.0209
lwrist 23.8404
lhand -17.3592 15.0044
lfingers 7.12502
lthumb 8.88875 44.7972
rfemur -14.1294 5.09791 23.5479
rtibia 47.6693
rfoot -20.6659 -8.63798
rtoes -36.3711
lfemur -63.7388 11.9667 -15.6982
ltibia 100.825
lfoot -1.88577 -10.1731
ltoes -17.7237
